<?xml version="1.0" encoding="UTF-8"?>
<svg id="Calque_1" xmlns="http://www.w3.org/2000/svg" version="1.1" viewBox="0 0 864 567">
  <!-- Generator: Adobe Illustrator 29.0.1, SVG Export Plug-In . SVG Version: 2.1.0 Build 192)  -->
  <defs>
    <style>
      .st0, .st1 {
        fill: #0fb2ce;
      }

      .st2 {
        fill: #9c1040;
      }

      .st3, .st4 {
        fill: #fff;
      }

      .st5 {
        fill: #9f103c;
      }

      .st6 {
        fill: #c9c9c9;
      }

      .st6, .st1 {
        font-family: OpenSans-ExtraBold, 'Open Sans';
        font-size: 130.4px;
        font-weight: 700;
      }

      .st4 {
        font-family: OpenSans-SemiBold, 'Open Sans';
        font-size: 63.8px;
        font-weight: 600;
      }

      .st7 {
        fill: #d0184c;
      }
    </style>
  </defs>
  <g>
    <path class="st3" d="M411,28.7c8.3.5,25.8,7.2,33.2,10.8,31.8,15.5,56.2,42.9,67.9,76.2,13.5,38.5,9.2,72.8-8.1,108.8,5.1,3.5,10.5,6.8,15.8,10.4,5.5-3.8,10-4.7,15.8-.9,26.9,17.6,53.5,34.3,80.2,52.2,16.6,11.1,10.7,35.7-7.8,40.5-6.2,1.6-13.8-.8-19.1-4.1-11.3-7.1-22.5-14.6-33.7-21.9-9.1-5.9-43.5-26.3-48.2-32.6-2.4-3.2-2-7-1.4-10.8-5.4-3.4-11.1-7.2-16.4-10.8-17.9,20.1-37.6,34.9-63.8,42.6,2.1-4.4,14-27.4,16.1-28.7,20.9-13.9,35.6-27.3,46.9-51.4,12.9-27.4,14.3-58.9,3.8-87.4-8.3-22.8-24.3-43.2-44.7-56.5-7.1-4.6-14.9-8.1-22.6-11.7-4.6-8.3-9.4-16.4-13.8-24.8Z"/>
    <path class="st3" d="M529.1,240.2l56.8,36.7c7.4,4.8,16.3,10.1,23.3,15.5,1.2,1,1.1,2,1.1,3.3-.8,1.8-1.8,2.2-3.4,3.3-.7-.3-2.5-1-3.6-1.8-25.8-16.8-52.2-33.2-77.6-50.6-.1-.4-.2-.8-.3-1.2.6-2.2,2.2-3.6,3.8-5.3Z"/>
    <path class="st2" d="M325.5,72.7c-1.5,4.7-2.7,8.9-4.7,13.4-3.5,10.6-4.4,16.5-5.2,27.8-.2,2.6-.7,10.5-1.2,12.7,5,3.3,33.1,11.9,40.3,14.2-8.6-9.9-19.8-18.8-28.3-28.4,2.6-1,5.5-.4,7.4-3.1,2.5-.3,6.3-.1,8.9,0l19.8,20.9c2.5-3.6,3.3-4,6.7-6.6l-3.1-8.9c3.5-4.8,8.4-11.1,12.5-15.4-.7,4.6-2.6,12.5-.8,16.5,2.6,1.9,4.4.7,7.1-1.1,1.5,34.4-.2,69.6.4,104.1,0,2.3-.5,16.1-.2,17-.7,1.8-.9,3.1-3,3.8-22-16.3-33.6-23-33.5-52.7-4.7,5.1-12.7,12.9-16.6,18,7.7,28.4,14.1,57.4,21.9,86-.9-1.6-4.4-7.4-4.8-8.7-1.8-2.2-5.1-8.8-6.7-11.7-12.3-22-18.2-45.6-26-69.4,11.4-12.1,24.7-23.9,35.8-36.1-14.4,5.3-30.6,12.8-44.9,18.8-1.1,28-1.9,29.8,6.3,56.6-1.5-2.2-4.4-6-5.5-8.2-11-7.9-13.1-42.9-14.9-56.5l52.3-21.1,5-1.9c-15.4-5.4-34.7-10.7-50.5-15.6-.6-7.1,7.5-36.8,10.5-44.9,1.5-3.8,11.9-15.9,15.1-19.5Z"/>
    <path class="st7" d="M378.6,99.3c-.7,4.6-2.6,12.5-.8,16.5,2.6,1.9,4.4.7,7.1-1.1,1.5,34.4-.2,69.6.4,104.1,0,2.3-.5,16.1-.2,17-6.3-5.1-13-11.6-18.6-17.4-11.9-12.4-11.6-22.3-11.1-37.6,4.6-5.9,15.4-15.9,21.1-21.9-5-8-10.4-16.6-16.6-23.7-5.5-6.3-22.3-19.8-26-25.8,2.5-.3,6.3-.1,8.9,0l19.8,20.9c2.5-3.6,3.3-4,6.7-6.6l-3.1-8.9c3.5-4.8,8.4-11.1,12.5-15.4Z"/>
    <path class="st7" d="M325.5,72.7c-1.5,4.7-2.7,8.9-4.7,13.4-3.5,10.6-4.4,16.5-5.2,27.8-.2,2.6-.7,10.5-1.2,12.7,5,3.3,33.1,11.9,40.3,14.2,2.9,2.5,6.3,6,9.2,8.7-5.7-1.5-11.4-3.7-16.9-5.1-14-3.7-26-7.4-39.5-12.5-2.4,1.8-5,3.5-7.5,5.2-.6-7.1,7.5-36.8,10.5-44.9,1.5-3.8,11.9-15.9,15.1-19.5Z"/>
    <path class="st2" d="M306.9,131.7c1.9-8.6,4.6-44.5,13.1-46.6l.8,1c-3.5,10.6-4.4,16.5-5.2,27.8-.2,2.6-.7,10.5-1.2,12.7-2.5,2.2-4.6,3.4-7.4,5.1Z"/>
    <path class="st7" d="M352.1,164.9c2.6-1.6,11.2-5.5,14.3-6.8-13,13-30.5,31.9-42.7,45.8,5.1,18.8,10.8,35.9,17.1,54.2,1.4,4,1.3,6.6,2.3,10.4,1.1,4,5.7,9.6,6,13.6-1.8-2.2-5.1-8.8-6.7-11.7-12.3-22-18.2-45.6-26-69.4,11.3-12.1,24.7-23.9,35.8-36.1Z"/>
    <path class="st7" d="M293.1,175.6l52.3-21.1.9,1.3c-4.1,7.3-36.3,18.6-45.9,24.3,0,10.4,0,22.4,1.5,32.7.6,3.7,3.2,8.8,3.5,13,.1,1.8,2.6,2.9,2.6,6.3-11-7.9-13.1-42.9-14.9-56.5Z"/>
    <path class="st2" d="M444.4,72.4c4,5.1,11.9,14.1,14.8,19.2,6.5,11.6,7.6,32.4,11.7,45-3,1.7-12.8,4.3-16.5,5.4-11.6,3.7-23.5,6.9-35,10.9,15.2,5.2,42.5,16.2,57.2,22.8.1,7.2-1.4,15.2-2.2,22.4-1.2,10.4-1.8,18.3-7.5,27.3h-1.6c0-.1-.9-1.8-.9-1.8-.5,1-5.7,13.7-6.7,15.3.5-2.3,4.1-16,4.1-16.9,2.3-9.7,1.6-27.7,1.6-38.3-12-5.8-32.3-13.9-45-18.9,11.7,12.3,24.3,23.9,35.7,36.2-7.7,24-14.1,48.5-26.7,70.4-1.6,2.8-4.8,9-6.6,11.2-.5,1.6-2.8,5.4-3.8,7.1,1.8-9.2,4.5-17.9,6.7-26.9,4.7-19.3,10.6-39.2,14.8-58.5-5.3-5.5-10.6-11-16-16.4-.3,10.2-.9,13.5-4.7,23-4,10-9,13-17.4,19.5-4.9,3.8-9.4,7.6-14.5,10.9-2,.1-1.9-.4-3.9-1.8,2.1-.6,2.4-2,3-3.8-.2-.9.3-14.7.2-17-.6-34.5,1.1-69.7-.4-104.1,2.2.9,3.8,1.5,6.1,2.2,4.4-2.2,1.2-12.9.8-17.3,4.2,4.7,9.2,10,12.7,15.1l-3.3,9c4,2.2,5.1,2.8,6.8,7,.2,1.8,0,3.5,2,4,9.2-7.1,16.3-16.2,26.8-24.1,2.1,0,5.4,1.4,7.1,2.5-9,7.6-19.8,18.7-28.1,27.2,2,.2,36.9-11.6,40-13.5-1.3-8.2-1.3-17.7-2.6-26-1.2-7.4-2.9-12.6-5.4-19.7-1.4-3.1-2.2-5.5-3.3-8.7Z"/>
    <path class="st7" d="M453.9,201.1c-7.7,24-14.1,48.5-26.6,70.4-1.6,2.8-4.8,9-6.6,11.2.6-3.9,3.9-9.4,6.1-12.8-.4-.5-.8-.9-1.3-1.3,8.6-17.4,14.4-49,22.7-65.2,1.6-.8,4-1.6,5.8-2.3Z"/>
    <path class="st0" d="M404.8,159.1c4.5,1.7,9.2,3.4,13.4,5.8,11.7,12.3,24.3,23.9,35.7,36.2-1.8.7-4.1,1.5-5.8,2.3-3.3-.7-38.1-38.7-43.4-44.3Z"/>
    <path class="st7" d="M455.7,126.7c.9,1.8,4.6,3.8,6.6,5.1-7,4-27.3,8.6-35.8,11.2-5.5,1.7-13.7,4.5-19.1,5.9,3-3.5,5-5.7,8.4-8.8,2,.2,36.9-11.6,40-13.5Z"/>
    <path class="st0" d="M444.4,72.4c4,5.1,11.9,14.1,14.8,19.2,6.5,11.6,7.6,32.4,11.7,45-2.9-1.4-6.1-2.6-7.8-5.2.1-7.9-7.3-47.1-15.3-50.2-1.4-3.1-2.2-5.5-3.3-8.7Z"/>
    <path class="st0" d="M476.5,175.7c.1,7.2-1.4,15.2-2.2,22.4-1.2,10.4-1.8,18.3-7.5,27.3l-9.3,13.6,6.7-15.3c6.4-15.2,3.6-27.4,6.2-43,2.1-2.8,2.9-3.5,6-5Z"/>
    <path class="st0" d="M397.6,163.8c3.7,1.8,14.9,14,18,17.7.4,19.7-1.1,30-18.2,42.1l-4.4,3.2c5.6-6.9,11.3-13,13.9-21.5,6.2-20.1-.3-24.4-9.2-41.3Z"/>
    <path class="st0" d="M388.6,124.2c4.4,1.9,8.1,4.4,11.7,7.5,1.1,3,2.5,7.8,3.4,11.1-2,2.8-5.3,6.6-7.6,9.3-.7.9-2.6,2.7-3.4,3.6,6.2-14,6.8-19.8-4.1-31.5Z"/>
    <path class="st3" d="M358.3,28.6l.3.6c-1.2,3.8-10.8,20-13.2,24.3-6.3,2.7-11.5,5.1-17.4,8.5-26.1,15.3-45.1,40.4-52.8,69.6-10.2,39.7,1.4,81.8,30.6,110.5,4.1,4,8.5,7.7,13.1,11.1,2.4,1.8,9.6,6,10.8,7.8,5.8,8.7,10.4,19,15.9,28.3-5.2-1.7-9.3-3.2-14.4-5.3-5.6-2.5-11-5.3-16.2-8.4-30.8-19.2-52.8-49.7-61.1-85.1-7.9-34.8-1.7-71.4,17.4-101.7,20.4-32.8,50-51.8,87.1-60.4Z"/>
    <path class="st3" d="M356.2,270.8c21.1,5.7,37.3,5.1,58.3-.2-1.2,5.5-3,11.9-4.5,17.4-.3.8-.7,4.2-.9,5.2-8.5,2.2-39.3,3.9-47-.3-1.9-2.9-6.4-18.8-5.9-22Z"/>
    <path class="st7" d="M404.1,30.8c5.5,9,11.1,18.3,16,27.7,3.2,4.4,24.6,51.1,23.8,54.6-1.7-1.1-5-2.5-7.1-2.5-10.5,7.9-17.5,16.9-26.8,24.1-1.9-.5-1.8-2.2-2-4,4.3-6.2,17.4-17.5,20-22.1-7.3-21.7-18.5-55.8-23.9-77.7Z"/>
    <path class="st5" d="M404.1,30.8c5.5,9,11.1,18.3,16,27.7l-1,.2c-.6-1.1-3.5-6.7-4.3-7.1,1.9,7.3,21.8,57.8,21.7,58.5-3-.8-6-.3-8.4-1.5-7.3-21.7-18.5-55.8-23.9-77.7Z"/>
    <path class="st7" d="M326.4,112.4c.3-3,4.5-12.3,5.9-15.6,9.2-22,20.7-46.1,34-66-1.8,6.5-3.4,13-5.8,19.3-3.7,13.6-8.2,27-12.3,40.5-1.2,3.9-5.1,15.4-5.5,18.8-2.6,0-6.4-.2-8.9,0-1.9,2.7-4.8,2.1-7.4,3.1Z"/>
    <path class="st2" d="M333.8,109.3l15.1-38.3c2.4-6.1,6.2-18.6,11.7-21-3.7,13.6-8.2,27-12.3,40.5-1.2,3.9-5.1,15.4-5.5,18.8-2.6,0-6.4-.2-8.9,0Z"/>
    <path class="st3" d="M375,26.3c6.9-.3,13.8-.2,20.7,0,2.2,7.5,4.5,13.9,6.3,21.7-2.5-.2-5.3-.5-7.8-.8-9.7-1.1-16.2,0-25.9.7,2-6.5,4.4-15.5,6.9-21.7Z"/>
  </g>
  <g>
    <text class="st6" transform="translate(29.7 453.6)"><tspan x="0" y="0">SPIDER</tspan></text>
    <text class="st1" transform="translate(514.9 453.6)"><tspan x="0" y="0">LENS</tspan></text>
  </g>
  <text class="st4" transform="translate(35.4 539.1)"><tspan x="0" y="0">Web crawler log audit tool</tspan></text>
</svg>